<svg width="646" height="258" viewBox="0 0 646 258" fill="none" xmlns="http://www.w3.org/2000/svg">
<g filter="url(#filter0_d_144_89)">
<path d="M40.9002 71L17.3002 40V71H0.200244V0.799998H17.3002V31.6L40.7002 0.799998H60.8002L33.6002 35.2L61.8002 71H40.9002ZM66.5268 43C66.5268 37.2667 67.5935 32.2333 69.7268 27.9C71.9268 23.5667 74.8935 20.2333 78.6268 17.9C82.3601 15.5667 86.5268 14.4 91.1268 14.4C95.0601 14.4 98.4935 15.2 101.427 16.8C104.427 18.4 106.727 20.5 108.327 23.1V15.2H125.427V71H108.327V63.1C106.66 65.7 104.327 67.8 101.327 69.4C98.3935 71 94.9601 71.8 91.0268 71.8C86.4935 71.8 82.3601 70.6333 78.6268 68.3C74.8935 65.9 71.9268 62.5333 69.7268 58.2C67.5935 53.8 66.5268 48.7333 66.5268 43ZM108.327 43.1C108.327 38.8333 107.127 35.4667 104.727 33C102.393 30.5333 99.5268 29.3 96.1268 29.3C92.7268 29.3 89.8268 30.5333 87.4268 33C85.0935 35.4 83.9268 38.7333 83.9268 43C83.9268 47.2667 85.0935 50.6667 87.4268 53.2C89.8268 55.6667 92.7268 56.9 96.1268 56.9C99.5268 56.9 102.393 55.6667 104.727 53.2C107.127 50.7333 108.327 47.3667 108.327 43.1ZM208.998 14.6C215.931 14.6 221.431 16.7 225.498 20.9C229.631 25.1 231.698 30.9333 231.698 38.4V71H214.698V40.7C214.698 37.1 213.731 34.3333 211.798 32.4C209.931 30.4 207.331 29.4 203.998 29.4C200.665 29.4 198.031 30.4 196.098 32.4C194.231 34.3333 193.298 37.1 193.298 40.7V71H176.298V40.7C176.298 37.1 175.331 34.3333 173.398 32.4C171.531 30.4 168.931 29.4 165.598 29.4C162.265 29.4 159.631 30.4 157.698 32.4C155.831 34.3333 154.898 37.1 154.898 40.7V71H137.798V15.2H154.898V22.2C156.631 19.8667 158.898 18.0333 161.698 16.7C164.498 15.3 167.665 14.6 171.198 14.6C175.398 14.6 179.131 15.5 182.398 17.3C185.731 19.1 188.331 21.6667 190.198 25C192.131 21.9333 194.765 19.4333 198.098 17.5C201.431 15.5667 205.065 14.6 208.998 14.6ZM260.757 23.1C262.424 20.5 264.724 18.4 267.657 16.8C270.591 15.2 274.024 14.4 277.957 14.4C282.557 14.4 286.724 15.5667 290.457 17.9C294.191 20.2333 297.124 23.5667 299.257 27.9C301.457 32.2333 302.557 37.2667 302.557 43C302.557 48.7333 301.457 53.8 299.257 58.2C297.124 62.5333 294.191 65.9 290.457 68.3C286.724 70.6333 282.557 71.8 277.957 71.8C274.091 71.8 270.657 71 267.657 69.4C264.724 67.8 262.424 65.7333 260.757 63.2V97.6H243.657V15.2H260.757V23.1ZM285.157 43C285.157 38.7333 283.957 35.4 281.557 33C279.224 30.5333 276.324 29.3 272.857 29.3C269.457 29.3 266.557 30.5333 264.157 33C261.824 35.4667 260.657 38.8333 260.657 43.1C260.657 47.3667 261.824 50.7333 264.157 53.2C266.557 55.6667 269.457 56.9 272.857 56.9C276.257 56.9 279.157 55.6667 281.557 53.2C283.957 50.6667 285.157 47.2667 285.157 43ZM366.628 15.2V71H349.528V63.4C347.795 65.8667 345.428 67.8667 342.428 69.4C339.495 70.8667 336.228 71.6 332.628 71.6C328.362 71.6 324.595 70.6667 321.328 68.8C318.062 66.8667 315.528 64.1 313.728 60.5C311.928 56.9 311.028 52.6667 311.028 47.8V15.2H328.028V45.5C328.028 49.2333 328.995 52.1333 330.928 54.2C332.862 56.2667 335.462 57.3 338.728 57.3C342.062 57.3 344.695 56.2667 346.628 54.2C348.562 52.1333 349.528 49.2333 349.528 45.5V15.2H366.628ZM412.911 14.6C419.445 14.6 424.645 16.7333 428.511 21C432.445 25.2 434.411 31 434.411 38.4V71H417.411V40.7C417.411 36.9667 416.445 34.0667 414.511 32C412.578 29.9333 409.978 28.9 406.711 28.9C403.445 28.9 400.845 29.9333 398.911 32C396.978 34.0667 396.011 36.9667 396.011 40.7V71H378.911V15.2H396.011V22.6C397.745 20.1333 400.078 18.2 403.011 16.8C405.945 15.3333 409.245 14.6 412.911 14.6ZM467.494 14.4C471.427 14.4 474.861 15.2 477.794 16.8C480.794 18.4 483.094 20.5 484.694 23.1V15.2H501.794V70.9C501.794 76.0333 500.761 80.6667 498.694 84.8C496.694 89 493.594 92.3333 489.394 94.8C485.261 97.2667 480.094 98.5 473.894 98.5C465.627 98.5 458.927 96.5333 453.794 92.6C448.661 88.7333 445.727 83.4667 444.994 76.8H461.894C462.427 78.9333 463.694 80.6 465.694 81.8C467.694 83.0667 470.161 83.7 473.094 83.7C476.627 83.7 479.427 82.6667 481.494 80.6C483.627 78.6 484.694 75.3667 484.694 70.9V63C483.027 65.6 480.727 67.7333 477.794 69.4C474.861 71 471.427 71.8 467.494 71.8C462.894 71.8 458.727 70.6333 454.994 68.3C451.261 65.9 448.294 62.5333 446.094 58.2C443.961 53.8 442.894 48.7333 442.894 43C442.894 37.2667 443.961 32.2333 446.094 27.9C448.294 23.5667 451.261 20.2333 454.994 17.9C458.727 15.5667 462.894 14.4 467.494 14.4ZM484.694 43.1C484.694 38.8333 483.494 35.4667 481.094 33C478.761 30.5333 475.894 29.3 472.494 29.3C469.094 29.3 466.194 30.5333 463.794 33C461.461 35.4 460.294 38.7333 460.294 43C460.294 47.2667 461.461 50.6667 463.794 53.2C466.194 55.6667 469.094 56.9 472.494 56.9C475.894 56.9 478.761 55.6667 481.094 53.2C483.494 50.7333 484.694 47.3667 484.694 43.1Z" fill="#0EDBFF"/>
<path d="M40.9002 158L17.3002 127V158H0.200244V87.8H17.3002V118.6L40.7002 87.8H60.8002L33.6002 122.2L61.8002 158H40.9002ZM87.0268 111.5C89.0268 108.433 91.5268 106.033 94.5268 104.3C97.5268 102.5 100.86 101.6 104.527 101.6V119.7H99.8268C95.5601 119.7 92.3601 120.633 90.2268 122.5C88.0935 124.3 87.0268 127.5 87.0268 132.1V158H69.9268V102.2H87.0268V111.5ZM165.3 129.2C165.3 130.8 165.2 132.467 165 134.2H126.3C126.567 137.667 127.667 140.333 129.6 142.2C131.6 144 134.034 144.9 136.9 144.9C141.167 144.9 144.134 143.1 145.8 139.5H164C163.067 143.167 161.367 146.467 158.9 149.4C156.5 152.333 153.467 154.633 149.8 156.3C146.134 157.967 142.034 158.8 137.5 158.8C132.034 158.8 127.167 157.633 122.9 155.3C118.634 152.967 115.3 149.633 112.9 145.3C110.5 140.967 109.3 135.9 109.3 130.1C109.3 124.3 110.467 119.233 112.8 114.9C115.2 110.567 118.534 107.233 122.8 104.9C127.067 102.567 131.967 101.4 137.5 101.4C142.9 101.4 147.7 102.533 151.9 104.8C156.1 107.067 159.367 110.3 161.7 114.5C164.1 118.7 165.3 123.6 165.3 129.2ZM147.8 124.7C147.8 121.767 146.8 119.433 144.8 117.7C142.8 115.967 140.3 115.1 137.3 115.1C134.434 115.1 132 115.933 130 117.6C128.067 119.267 126.867 121.633 126.4 124.7H147.8ZM170.921 130C170.921 124.267 171.988 119.233 174.121 114.9C176.321 110.567 179.288 107.233 183.021 104.9C186.755 102.567 190.921 101.4 195.521 101.4C199.455 101.4 202.888 102.2 205.821 103.8C208.821 105.4 211.121 107.5 212.721 110.1V102.2H229.821V158H212.721V150.1C211.055 152.7 208.721 154.8 205.721 156.4C202.788 158 199.355 158.8 195.421 158.8C190.888 158.8 186.755 157.633 183.021 155.3C179.288 152.9 176.321 149.533 174.121 145.2C171.988 140.8 170.921 135.733 170.921 130ZM212.721 130.1C212.721 125.833 211.521 122.467 209.121 120C206.788 117.533 203.921 116.3 200.521 116.3C197.121 116.3 194.221 117.533 191.821 120C189.488 122.4 188.321 125.733 188.321 130C188.321 134.267 189.488 137.667 191.821 140.2C194.221 142.667 197.121 143.9 200.521 143.9C203.921 143.9 206.788 142.667 209.121 140.2C211.521 137.733 212.721 134.367 212.721 130.1ZM273.292 143.5V158H264.592C258.392 158 253.559 156.5 250.092 153.5C246.626 150.433 244.892 145.467 244.892 138.6V116.4H238.092V102.2H244.892V88.6H261.992V102.2H273.192V116.4H261.992V138.8C261.992 140.467 262.392 141.667 263.192 142.4C263.992 143.133 265.326 143.5 267.192 143.5H273.292ZM291.417 96.4C288.417 96.4 285.951 95.5333 284.017 93.8C282.151 92 281.217 89.8 281.217 87.2C281.217 84.5333 282.151 82.3333 284.017 80.6C285.951 78.8 288.417 77.9 291.417 77.9C294.351 77.9 296.751 78.8 298.617 80.6C300.551 82.3333 301.517 84.5333 301.517 87.2C301.517 89.8 300.551 92 298.617 93.8C296.751 95.5333 294.351 96.4 291.417 96.4ZM299.917 102.2V158H282.817V102.2H299.917ZM340.31 116.4H331.11V158H314.01V116.4H307.81V102.2H314.01V100.6C314.01 93.7333 315.976 88.5333 319.91 85C323.843 81.4 329.61 79.6 337.21 79.6C338.476 79.6 339.41 79.6333 340.01 79.7V94.2C336.743 94 334.443 94.4667 333.11 95.6C331.776 96.7333 331.11 98.7667 331.11 101.7V102.2H340.31V116.4Z" fill="#E40017"/>
<path d="M42.7002 209C46.7669 209.867 50.0336 211.9 52.5002 215.1C54.9669 218.233 56.2002 221.833 56.2002 225.9C56.2002 231.767 54.1336 236.433 50.0002 239.9C45.9336 243.3 40.2336 245 32.9002 245H0.200244V174.8H31.8002C38.9336 174.8 44.5002 176.433 48.5002 179.7C52.5669 182.967 54.6002 187.4 54.6002 193C54.6002 197.133 53.5002 200.567 51.3002 203.3C49.1669 206.033 46.3002 207.933 42.7002 209ZM17.3002 203.2H28.5002C31.3002 203.2 33.4336 202.6 34.9002 201.4C36.4336 200.133 37.2002 198.3 37.2002 195.9C37.2002 193.5 36.4336 191.667 34.9002 190.4C33.4336 189.133 31.3002 188.5 28.5002 188.5H17.3002V203.2ZM29.9002 231.2C32.7669 231.2 34.9669 230.567 36.5002 229.3C38.1002 227.967 38.9002 226.067 38.9002 223.6C38.9002 221.133 38.0669 219.2 36.4002 217.8C34.8002 216.4 32.5669 215.7 29.7002 215.7H17.3002V231.2H29.9002ZM62.7182 217C62.7182 211.267 63.7849 206.233 65.9182 201.9C68.1182 197.567 71.0849 194.233 74.8182 191.9C78.5515 189.567 82.7182 188.4 87.3182 188.4C91.2515 188.4 94.6849 189.2 97.6182 190.8C100.618 192.4 102.918 194.5 104.518 197.1V189.2H121.618V245H104.518V237.1C102.852 239.7 100.518 241.8 97.5182 243.4C94.5849 245 91.1515 245.8 87.2182 245.8C82.6849 245.8 78.5515 244.633 74.8182 242.3C71.0849 239.9 68.1182 236.533 65.9182 232.2C63.7849 227.8 62.7182 222.733 62.7182 217ZM104.518 217.1C104.518 212.833 103.318 209.467 100.918 207C98.5849 204.533 95.7182 203.3 92.3182 203.3C88.9182 203.3 86.0182 204.533 83.6182 207C81.2849 209.4 80.1182 212.733 80.1182 217C80.1182 221.267 81.2849 224.667 83.6182 227.2C86.0182 229.667 88.9182 230.9 92.3182 230.9C95.7182 230.9 98.5849 229.667 100.918 227.2C103.318 224.733 104.518 221.367 104.518 217.1ZM165.089 230.5V245H156.389C150.189 245 145.356 243.5 141.889 240.5C138.423 237.433 136.689 232.467 136.689 225.6V203.4H129.889V189.2H136.689V175.6H153.789V189.2H164.989V203.4H153.789V225.8C153.789 227.467 154.189 228.667 154.989 229.4C155.789 230.133 157.123 230.5 158.989 230.5H165.089ZM183.214 183.4C180.214 183.4 177.748 182.533 175.814 180.8C173.948 179 173.014 176.8 173.014 174.2C173.014 171.533 173.948 169.333 175.814 167.6C177.748 165.8 180.214 164.9 183.214 164.9C186.148 164.9 188.548 165.8 190.414 167.6C192.348 169.333 193.314 171.533 193.314 174.2C193.314 176.8 192.348 179 190.414 180.8C188.548 182.533 186.148 183.4 183.214 183.4ZM191.714 189.2V245H174.614V189.2H191.714ZM238.206 245L221.206 221.6V245H204.106V171H221.206V211.9L238.106 189.2H259.206L236.006 217.2L259.406 245H238.206Z" fill="#FF00BF"/>
<path d="M313.414 174.8C320.814 174.8 327.281 176.267 332.814 179.2C338.348 182.133 342.614 186.267 345.614 191.6C348.681 196.867 350.214 202.967 350.214 209.9C350.214 216.767 348.681 222.867 345.614 228.2C342.614 233.533 338.314 237.667 332.714 240.6C327.181 243.533 320.748 245 313.414 245H287.114V174.8H313.414ZM312.314 230.2C318.781 230.2 323.814 228.433 327.414 224.9C331.014 221.367 332.814 216.367 332.814 209.9C332.814 203.433 331.014 198.4 327.414 194.8C323.814 191.2 318.781 189.4 312.314 189.4H304.214V230.2H312.314ZM368.371 183.4C365.371 183.4 362.904 182.533 360.971 180.8C359.104 179 358.171 176.8 358.171 174.2C358.171 171.533 359.104 169.333 360.971 167.6C362.904 165.8 365.371 164.9 368.371 164.9C371.304 164.9 373.704 165.8 375.571 167.6C377.504 169.333 378.471 171.533 378.471 174.2C378.471 176.8 377.504 179 375.571 180.8C373.704 182.533 371.304 183.4 368.371 183.4ZM376.871 189.2V245H359.771V189.2H376.871ZM417.263 203.4H408.063V245H390.963V203.4H384.763V189.2H390.963V187.6C390.963 180.733 392.929 175.533 396.863 172C400.796 168.4 406.563 166.6 414.163 166.6C415.429 166.6 416.363 166.633 416.963 166.7V181.2C413.696 181 411.396 181.467 410.063 182.6C408.729 183.733 408.063 185.767 408.063 188.7V189.2H417.263V203.4ZM421.898 217C421.898 211.267 422.965 206.233 425.098 201.9C427.298 197.567 430.265 194.233 433.998 191.9C437.731 189.567 441.898 188.4 446.498 188.4C450.431 188.4 453.865 189.2 456.798 190.8C459.798 192.4 462.098 194.5 463.698 197.1V189.2H480.798V245H463.698V237.1C462.031 239.7 459.698 241.8 456.698 243.4C453.765 245 450.331 245.8 446.398 245.8C441.865 245.8 437.731 244.633 433.998 242.3C430.265 239.9 427.298 236.533 425.098 232.2C422.965 227.8 421.898 222.733 421.898 217ZM463.698 217.1C463.698 212.833 462.498 209.467 460.098 207C457.765 204.533 454.898 203.3 451.498 203.3C448.098 203.3 445.198 204.533 442.798 207C440.465 209.4 439.298 212.733 439.298 217C439.298 221.267 440.465 224.667 442.798 227.2C445.198 229.667 448.098 230.9 451.498 230.9C454.898 230.9 457.765 229.667 460.098 227.2C462.498 224.733 463.698 221.367 463.698 217.1ZM510.269 197.1C511.869 194.5 514.169 192.4 517.169 190.8C520.169 189.2 523.602 188.4 527.469 188.4C532.069 188.4 536.236 189.567 539.969 191.9C543.702 194.233 546.636 197.567 548.769 201.9C550.969 206.233 552.069 211.267 552.069 217C552.069 222.733 550.969 227.8 548.769 232.2C546.636 236.533 543.702 239.9 539.969 242.3C536.236 244.633 532.069 245.8 527.469 245.8C523.536 245.8 520.102 245.033 517.169 243.5C514.236 241.9 511.936 239.8 510.269 237.2V245H493.169V171H510.269V197.1ZM534.669 217C534.669 212.733 533.469 209.4 531.069 207C528.736 204.533 525.836 203.3 522.369 203.3C518.969 203.3 516.069 204.533 513.669 207C511.336 209.467 510.169 212.833 510.169 217.1C510.169 221.367 511.336 224.733 513.669 227.2C516.069 229.667 518.969 230.9 522.369 230.9C525.769 230.9 528.669 229.667 531.069 227.2C533.469 224.667 534.669 221.267 534.669 217ZM613.64 216.2C613.64 217.8 613.54 219.467 613.34 221.2H574.64C574.907 224.667 576.007 227.333 577.94 229.2C579.94 231 582.373 231.9 585.24 231.9C589.507 231.9 592.473 230.1 594.14 226.5H612.34C611.407 230.167 609.707 233.467 607.24 236.4C604.84 239.333 601.807 241.633 598.14 243.3C594.473 244.967 590.373 245.8 585.84 245.8C580.373 245.8 575.507 244.633 571.24 242.3C566.973 239.967 563.64 236.633 561.24 232.3C558.84 227.967 557.64 222.9 557.64 217.1C557.64 211.3 558.807 206.233 561.14 201.9C563.54 197.567 566.873 194.233 571.14 191.9C575.407 189.567 580.307 188.4 585.84 188.4C591.24 188.4 596.04 189.533 600.24 191.8C604.44 194.067 607.707 197.3 610.04 201.5C612.44 205.7 613.64 210.6 613.64 216.2ZM596.14 211.7C596.14 208.767 595.14 206.433 593.14 204.7C591.14 202.967 588.64 202.1 585.64 202.1C582.773 202.1 580.34 202.933 578.34 204.6C576.407 206.267 575.207 208.633 574.74 211.7H596.14ZM639.761 171V245H622.661V171H639.761Z" fill="#C3C3C3"/>
</g>
<defs>
<filter id="filter0_d_144_89" x="0.200195" y="0.799805" width="645.561" height="257" filterUnits="userSpaceOnUse" color-interpolation-filters="sRGB">
<feFlood flood-opacity="0" result="BackgroundImageFix"/>
<feColorMatrix in="SourceAlpha" type="matrix" values="0 0 0 0 0 0 0 0 0 0 0 0 0 0 0 0 0 0 127 0" result="hardAlpha"/>
<feOffset dx="6" dy="12"/>
<feComposite in2="hardAlpha" operator="out"/>
<feColorMatrix type="matrix" values="0 0 0 0 0 0 0 0 0 0 0 0 0 0 0 0 0 0 0.5 0"/>
<feBlend mode="normal" in2="BackgroundImageFix" result="effect1_dropShadow_144_89"/>
<feBlend mode="normal" in="SourceGraphic" in2="effect1_dropShadow_144_89" result="shape"/>
</filter>
</defs>
</svg>
