<svg width="377" height="200" viewBox="0 0 377 200" fill="none" xmlns="http://www.w3.org/2000/svg">
<path d="M91.4971 2.26222L59.533 92.0855L32.141 92.0574L0.361165 2.16876L23.6572 2.19265L45.8596 70.0555L68.3291 2.23846L91.4971 2.26222ZM122.533 2.29405L122.441 92.15L100.553 92.1276L100.645 2.2716L122.533 2.29405ZM170.814 93.0956C164.243 93.0889 158.356 92.0162 153.153 89.8775C147.95 87.7388 143.772 84.5772 140.619 80.3926C137.551 76.2082 135.935 71.1718 135.771 65.2837L159.066 65.3075C159.404 68.6359 160.554 71.1971 162.515 72.9911C164.476 74.6998 167.035 75.5557 170.192 75.559C173.435 75.5623 175.995 74.8396 177.874 73.3908C179.753 71.8568 180.694 69.7671 180.697 67.1217C180.699 64.9031 179.933 63.0676 178.398 61.6154C176.949 60.1632 175.116 58.9667 172.898 58.0257C170.766 57.0849 167.695 56.0151 163.685 54.8163C157.884 53.0183 153.15 51.2215 149.483 49.4257C145.815 47.6299 142.661 44.9814 140.019 41.48C137.377 37.9786 136.059 33.4119 136.065 27.7799C136.074 19.4173 139.11 12.8924 145.173 8.20527C151.237 3.43282 159.132 1.05158 168.86 1.06156C178.759 1.07171 186.735 3.46922 192.789 8.2541C198.843 12.9536 202.079 19.5276 202.497 27.9761L178.817 27.9518C178.649 25.0503 177.585 22.7879 175.624 21.1645C173.663 19.4558 171.146 18.5999 168.074 18.5968C165.429 18.594 163.295 19.3172 161.672 20.7662C160.049 22.1299 159.237 24.1344 159.234 26.7797C159.231 29.681 160.594 31.9438 163.323 33.5679C166.052 35.192 170.317 36.9457 176.118 38.829C181.918 40.7976 186.61 42.6798 190.192 44.4755C193.859 46.2712 197.014 48.8771 199.656 52.2932C202.298 55.7092 203.616 60.1052 203.61 65.4812C203.605 70.6012 202.278 75.2505 199.628 79.4292C197.064 83.6079 193.306 86.932 188.354 89.4016C183.402 91.8712 177.555 93.1025 170.814 93.0956ZM239.033 2.41352L238.941 92.2695L217.053 92.247L217.145 2.39107L239.033 2.41352Z" fill="#BC0505"/>
<path d="M350.664 92.384L342.352 84.3115C334.068 90.6177 324.166 93.7649 312.646 93.7531C305.734 93.746 299.72 92.6305 294.602 90.4066C289.484 88.0973 285.519 84.8932 282.708 80.7944C279.981 76.6102 278.621 71.7448 278.627 66.1982C278.632 60.5662 280.131 55.4904 283.122 50.9708C286.199 46.3659 290.768 42.6159 296.83 39.7208C294.614 36.9879 293.038 34.3836 292.102 31.908C291.166 29.347 290.699 26.5732 290.702 23.5865C290.707 19.3199 291.82 15.4383 294.042 11.9419C296.265 8.44555 299.467 5.71816 303.651 3.75979C307.919 1.71616 312.955 0.697328 318.758 0.703278C324.646 0.709316 329.637 1.7811 333.731 3.91863C337.824 6.05617 340.893 8.91798 342.938 12.5041C344.982 16.0902 345.917 20.0165 345.742 24.283L325.134 24.2618C325.221 21.9579 324.626 20.208 323.347 19.012C322.154 17.7308 320.533 17.0891 318.485 17.087C316.437 17.0849 314.73 17.6805 313.363 18.8738C311.997 20.067 311.312 21.6023 311.31 23.4796C311.309 25.2717 311.861 27.1496 312.969 29.1134C314.161 31.0772 315.994 33.3405 318.466 35.903L340.332 57.3014C340.503 56.8749 340.717 56.3632 340.973 55.7661C341.315 55.1691 341.657 54.4868 341.999 53.7191L346.744 45.66L368.632 45.6824L362.476 56.8121C360.167 61.8444 357.517 66.6204 354.526 71.14L376.136 92.4102L350.664 92.384ZM313.689 76.0901C319.406 76.096 324.485 74.4799 328.926 71.2417L308.977 51.8933C302.83 55.0443 299.754 59.3078 299.748 64.6838C299.745 67.9265 300.979 70.6584 303.452 72.8796C306.01 75.0156 309.422 76.0857 313.689 76.0901Z" fill="#006FFF"/>
<path d="M161.421 108.334L161.329 198.19L139.441 198.167L139.497 144.28L119.345 198.147L101.681 198.129L81.5127 144.092L81.4573 198.108L59.5693 198.086L59.6614 108.23L85.5174 108.256L110.67 170.49L135.693 108.308L161.421 108.334ZM199.049 108.373L198.957 198.229L177.069 198.206L177.161 108.35L199.049 108.373ZM247.33 199.174C240.76 199.167 234.873 198.095 229.67 195.956C224.466 193.817 220.288 190.656 217.135 186.471C214.068 182.287 212.451 177.25 212.287 171.362L235.583 171.386C235.921 174.714 237.07 177.276 239.031 179.07C240.992 180.778 243.551 181.634 246.708 181.637C249.951 181.641 252.512 180.918 254.39 179.469C256.269 177.935 257.21 175.846 257.213 173.2C257.215 170.982 256.449 169.146 254.915 167.694C253.465 166.242 251.632 165.045 249.414 164.104C247.282 163.163 244.211 162.094 240.202 160.895C234.401 159.097 229.667 157.3 225.999 155.504C222.332 153.708 219.177 151.06 216.535 147.559C213.893 144.057 212.575 139.49 212.581 133.858C212.59 125.496 215.626 118.971 221.689 114.284C227.753 109.511 235.649 107.13 245.377 107.14C255.275 107.15 263.252 109.548 269.305 114.333C275.359 119.032 278.595 125.606 279.013 134.055L255.333 134.03C255.165 131.129 254.101 128.866 252.14 127.243C250.179 125.534 247.663 124.678 244.591 124.675C241.945 124.673 239.811 125.396 238.188 126.845C236.566 128.208 235.753 130.213 235.75 132.858C235.747 135.76 237.11 138.022 239.839 139.646C242.568 141.271 246.833 143.024 252.634 144.908C258.435 146.876 263.126 148.758 266.708 150.554C270.376 152.35 273.53 154.956 276.172 158.372C278.814 161.788 280.132 166.184 280.127 171.56C280.121 176.68 278.794 181.329 276.144 185.508C273.58 189.686 269.822 193.011 264.87 195.48C259.918 197.95 254.072 199.181 247.33 199.174ZM315.549 108.492L315.457 198.348L293.569 198.326L293.661 108.47L315.549 108.492Z" fill="#ECFB19"/>
</svg>
